<?xml version="1.0" encoding="UTF-8"?>
<!DOCTYPE svg PUBLIC "-//W3C//DTD SVG 1.1//EN" "http://www.w3.org/Graphics/SVG/1.1/DTD/svg11.dtd">
<!-- Creator: CorelDRAW -->
<svg xmlns="http://www.w3.org/2000/svg" xml:space="preserve" width="512px" height="512px" version="1.1" style="shape-rendering:geometricPrecision; text-rendering:geometricPrecision; image-rendering:optimizeQuality; fill-rule:evenodd; clip-rule:evenodd"
viewBox="0 0 512 512"
 xmlns:xlink="http://www.w3.org/1999/xlink">
 <defs>
  <style type="text/css">
   <![CDATA[
    .fil0 {fill:#465A61}
    .fil1 {fill:#979FEF}
    .fil4 {fill:#A8D3D8}
    .fil2 {fill:#DEECF1}
    .fil5 {fill:#FF7816}
    .fil3 {fill:white}
   ]]>
  </style>
 </defs>
 <g id="Layer_x0020_1">
  <metadata id="CorelCorpID_0Corel-Layer"/>
  <path class="fil0" d="M404 512l-296 0c-17,0 -31,-14 -31,-30l0 -413c0,-16 14,-30 31,-30l69 0c3,0 5,2 5,5l0 38c0,11 9,20 20,20l108 0c11,0 20,-9 20,-20l0 -38c0,-3 2,-5 5,-5l69 0c17,0 31,14 31,30l0 413c0,16 -14,30 -31,30z"/>
  <path class="fil1" d="M310 112l-108 0c-17,0 -30,-14 -30,-30l0 -77c0,-3 2,-5 5,-5l158 0c3,0 5,2 5,5l0 77c0,16 -13,30 -30,30z"/>
  <path class="fil2" d="M108 49c-12,0 -21,9 -21,20l0 413c0,11 9,20 21,20l296 0c12,0 21,-9 21,-20l0 -413c0,-11 -9,-20 -21,-20l-64 0 0 33c0,16 -13,30 -30,30l-108 0c-17,0 -30,-14 -30,-30l0 -33 -64 0z"/>
  <path class="fil3" d="M289 49l-66 0c-3,0 -5,-2 -5,-5 0,-3 2,-5 5,-5l66 0c3,0 5,2 5,5 0,3 -2,5 -5,5z"/>
  <path class="fil3" d="M289 73l-66 0c-3,0 -5,-2 -5,-5 0,-3 2,-5 5,-5l66 0c3,0 5,2 5,5 0,3 -2,5 -5,5z"/>
  <g id="_639424144">
   <path class="fil4" d="M393 197l-138 0c-3,0 -5,-2 -5,-5 0,-3 2,-5 5,-5l138 0c3,0 5,2 5,5 0,3 -2,5 -5,5z"/>
   <path class="fil4" d="M371 174l-116 0c-3,0 -5,-2 -5,-5 0,-3 2,-5 5,-5l116 0c2,0 5,2 5,5 0,3 -3,5 -5,5z"/>
   <path class="fil4" d="M393 323l-138 0c-3,0 -5,-2 -5,-5 0,-2 2,-5 5,-5l138 0c3,0 5,3 5,5 0,3 -2,5 -5,5z"/>
   <path class="fil4" d="M371 300l-116 0c-3,0 -5,-2 -5,-5 0,-2 2,-5 5,-5l116 0c2,0 5,3 5,5 0,3 -3,5 -5,5z"/>
   <path class="fil4" d="M393 438l-138 0c-3,0 -5,-2 -5,-5 0,-3 2,-5 5,-5l138 0c3,0 5,2 5,5 0,3 -2,5 -5,5z"/>
   <path class="fil4" d="M371 415l-116 0c-3,0 -5,-2 -5,-5 0,-2 2,-5 5,-5l116 0c2,0 5,3 5,5 0,3 -3,5 -5,5z"/>
   <g>
    <path class="fil4" d="M202 235l-74 0c-8,0 -14,-6 -14,-14l0 -58c0,-8 6,-14 14,-14l74 0c8,0 14,6 14,14l0 58c0,8 -6,14 -14,14z"/>
    <path class="fil5" d="M156 214c-2,0 -3,0 -4,-1l-16 -17c-2,-1 -2,-5 0,-7 2,-2 5,-2 7,0l13 13 31 -31c2,-2 5,-2 7,0 2,2 2,5 0,7l-35 35c-1,1 -2,1 -3,1z"/>
   </g>
   <g>
    <path class="fil4" d="M202 350l-74 0c-8,0 -14,-6 -14,-14l0 -58c0,-8 6,-14 14,-14l74 0c8,0 14,6 14,14l0 58c0,8 -6,14 -14,14z"/>
    <path class="fil5" d="M156 329c-2,0 -3,0 -4,-1l-16 -17c-2,-2 -2,-5 0,-7 2,-2 5,-2 7,0l13 13 31 -31c2,-2 5,-2 7,0 2,2 2,5 0,7l-35 35c-1,1 -2,1 -3,1z"/>
   </g>
   <g>
    <path class="fil4" d="M202 465l-74 0c-8,0 -14,-7 -14,-14l0 -58c0,-8 6,-14 14,-14l74 0c8,0 14,6 14,14l0 58c0,7 -6,14 -14,14z"/>
    <path class="fil5" d="M156 444c-2,0 -3,0 -4,-1l-16 -17c-2,-2 -2,-5 0,-7 2,-2 5,-2 7,0l13 13 31 -31c2,-2 5,-2 7,0 2,2 2,5 0,7l-35 35c-1,1 -2,1 -3,1z"/>
   </g>
  </g>
 </g>
</svg>
